<svg width="1440" height="1024" viewBox="0 0 1440 1024" fill="none" xmlns="http://www.w3.org/2000/svg">
<g clip-path="url(#clip0_139_1702)" fill="currentColor">
<path d="M-0.291299 541.991C-4.01007 554.282 -6.92045 564.955 -9.02236 574.012C-11.2051 583.311 -11.8519 588.162 -10.9626 588.567C-10.1542 589.456 -4.65682 586.788 5.52941 580.481C15.3923 574.254 27.0337 566.249 40.4536 556.546C80.956 527.679 116.608 508.515 147.49 498.973C178.534 489.27 200.927 490.483 214.751 502.531C222.917 509.242 227.04 518.056 227.04 529.053C227.04 544.174 219.602 562.691 204.727 584.685C178.615 622.69 135.202 664.252 74.4078 709.534C61.4729 719.076 50.1548 727.809 40.4536 735.733C31.3992 743.334 26.872 747.701 26.872 748.994C26.872 750.126 28.4889 753.442 31.7226 759.021C34.7138 764.439 38.5134 770.261 43.0406 776.487C55.0862 793.144 65.515 811.419 74.4078 831.472C83.4622 852.011 93.4867 879.827 104.481 914.921C109.413 931.982 114.829 948.882 120.65 965.701C125.986 982.278 130.19 993.679 133.262 999.986C139.891 1016.97 141.993 1027.48 139.406 1031.36C138.921 1032.17 138.112 1032.65 136.819 1032.65C133.585 1032.65 127.764 1028.21 119.357 1019.39C106.422 1006.45 94.7802 989.959 84.4323 969.906C73.4376 949.448 60.907 920.257 46.9211 882.253C33.0969 846.27 21.7789 819.747 12.967 802.686C4.55929 786.109 -2.39323 776.73 -7.72887 774.546C-11.8519 773.253 -20.5829 776.406 -33.922 783.926C-47.7462 791.042 -61.3279 799.128 -74.667 808.184C-83.5597 814.249 -91.3207 820.152 -97.9498 825.974C-104.256 831.391 -108.217 835.92 -109.915 839.558C-134.491 900.204 -151.953 942.251 -162.301 965.701C-172.487 988.989 -179.116 1002.25 -182.35 1005.48C-185.826 1009.37 -188.009 1010.17 -188.817 1008.07C-189.949 1006.29 -190.434 1000.07 -190.434 989.312C-190.434 982.197 -189.949 972.574 -188.817 960.526C-187.524 948.478 -185.826 937.4 -183.644 927.211C-181.946 917.346 -180.086 906.996 -178.146 896.161C-176.044 885.164 -174.508 877.239 -173.619 872.226C-173.215 868.183 -172.325 862.119 -171.032 854.113C-178.146 855.003 -189.06 856.377 -203.693 858.318C-211.292 859.208 -222.367 860.744 -237 862.846C-233.524 859.854 -228.916 855.407 -223.095 849.585C-219.457 846.351 -213.636 842.065 -205.633 836.647C-197.71 831.472 -190.111 826.863 -182.997 822.739C-175.883 819.101 -169.253 814.492 -162.948 808.831C-156.723 803.494 -152.923 799.128 -151.63 795.894C-142.171 770.908 -131.904 745.275 -120.909 718.914C-110.157 692.634 -99.1625 667.082 -87.9253 642.258C-67.4719 596.329 -48.7163 557.112 -31.6584 524.525C-14.0346 492.019 -2.71658 475.038 2.29568 473.744H4.88266C10.7034 473.34 13.1287 478.434 12.3202 488.946C11.431 499.296 7.22711 517.005 -0.291299 541.991ZM55.6522 580.481C27.5996 600.534 4.23592 619.941 -14.5197 638.7C-33.2753 657.945 -46.2102 674.926 -53.3244 689.804C-55.1029 694.171 -57.6899 699.669 -61.0853 706.3C-63.9149 713.011 -65.2892 717.944 -65.2892 721.178V721.825C-64.885 725.302 -61.5704 725.706 -55.2646 723.119C-49.0397 720.774 -38.1259 721.663 -22.604 725.706H-22.2806C-19.2894 725.706 -12.9028 722.391 -3.20165 715.68C7.55048 709.049 19.4344 700.64 32.3693 690.451C80.8752 655.519 119.842 623.66 149.43 594.712C179.18 566.087 194.056 545.791 194.056 533.905C193.571 529.862 191.873 526.951 188.882 525.172C186.052 523.878 182.495 523.231 178.21 523.231H175.3C162.527 524.525 145.388 530.266 123.884 540.374C102.056 550.32 79.3392 563.662 55.6522 580.481Z"  />
<path d="M310.912 757.728C305.495 764.844 294.824 770.908 278.898 775.841C263.134 780.854 245.671 783.927 226.512 785.221C215.921 785.706 208.403 786.838 203.875 788.778C199.348 790.962 195.549 794.762 192.557 800.099C186.737 810.692 184.231 819.505 185.12 826.621C185.928 833.737 189.97 840.044 197.085 845.381C215.355 854.922 239.527 858.238 269.52 855.408C299.675 852.416 341.309 838.427 394.342 813.36C420.212 801.312 442.686 791.689 461.927 784.574C481.087 777.054 491.111 773.253 492 773.253C492.405 773.253 492.809 774.143 493.294 775.841C493.698 777.134 493.941 778.59 493.941 780.045V781.339C493.456 788.051 483.754 798.32 464.837 812.066C446.082 826.298 424.173 839.882 399.193 852.82C385.368 859.936 371.382 866.647 357.154 872.874C342.926 878.696 329.344 883.466 316.409 887.105C292.641 893.816 270.571 897.132 250.118 897.132H242.68C220.044 896.081 202.663 892.442 190.617 886.135C179.784 880.555 171.134 873.197 164.424 864.141C157.31 854.922 153.106 845.057 151.812 834.707V830.179C151.812 823.953 153.106 817.241 155.693 810.126C158.522 801.554 162.807 792.821 168.628 783.927C179.623 767.35 194.013 752.149 211.96 738.321C229.826 724.575 248.178 715.519 266.933 711.152C270.814 710.344 274.532 709.777 278.251 709.535H288.922C303.151 710.667 312.69 715.842 317.703 725.06C322.877 734.602 320.613 745.437 310.912 757.728ZM253.998 744.467C245.995 748.591 239.285 753.038 233.949 757.728C230.877 759.669 229.422 761.286 229.422 762.58C229.422 763.469 230.23 764.116 232.009 764.52H233.949C236.294 764.52 240.255 764.358 245.914 763.873C252.543 763.065 261.517 759.911 272.754 754.493C276.392 752.391 279.949 749.238 283.425 745.114C284.719 743.011 285.365 741.475 285.365 740.585C285.365 739.534 284.234 738.806 282.132 738.321H280.191C278.009 738.321 275.098 738.564 271.46 738.968C266.933 739.211 261.112 741.071 253.998 744.467Z"  />
<path d="M694.599 719.56C701.713 723.684 705.674 728.859 706.563 735.086C706.968 741.393 704.3 752.471 698.479 768.4C690.476 790.394 685.625 806.081 683.927 815.299C682.391 824.841 683.28 831.957 686.514 836.647C691.446 843.358 706.563 844.571 731.786 840.204C756.767 836.161 794.278 826.135 844.32 810.124C868.896 801.957 892.26 794.761 914.492 788.454C936.643 782.47 950.71 779.074 956.53 778.427C961.058 778.023 968.172 777.133 977.873 775.839C975.286 777.78 971.244 781.176 965.908 785.866C960.896 790.394 953.62 795.569 943.919 801.391C933.975 806.809 922.738 812.631 910.288 818.857C886.763 830.744 860.812 842.064 832.355 852.819C804.06 863.654 779.484 871.578 758.626 876.754C735.99 882.171 719.256 885.082 708.504 885.486H706.563C696.215 885.486 686.352 883.384 677.136 879.018C662.019 872.387 652.237 863.007 647.709 850.878C643.182 838.426 643.586 821.687 649.003 800.744C651.105 793.629 653.207 787.16 655.147 781.338C657.734 776.001 658.785 772.605 658.381 771.311C657.896 770.017 652.964 772.443 643.506 778.427C634.209 783.845 623.133 790.556 610.198 798.48C565.977 825.488 530.729 842.307 504.455 848.937C478.181 855.649 461.043 852.98 453.039 840.851C449.644 835.919 447.865 831.957 447.865 828.884V828.237C447.865 825.488 449.401 820.474 452.392 813.359C456.111 803.655 464.034 793.629 476.322 783.279C488.368 772.928 502.03 764.034 517.39 756.433C525.798 752.147 534.61 749.236 543.907 747.7C552.961 746.406 566.543 745.597 584.652 745.112C604.863 744.708 618.768 743.657 626.367 741.878C634.29 740.18 644.557 735.975 657.087 729.264C665.495 724.735 672.124 721.663 677.136 719.884C681.179 718.428 684.736 717.62 687.808 717.62H688.454C689.748 717.62 690.799 717.862 691.688 718.267C692.497 718.752 693.467 719.156 694.599 719.56ZM573.981 768.4C560.561 770.826 546.817 774.465 532.589 779.397C518.765 784.572 506.8 791.526 496.694 800.098C484.164 811.095 477.939 818.21 477.939 821.445C478.424 822.334 479.232 822.981 480.526 823.385C481.011 823.871 481.577 824.032 482.466 824.032C489.095 823.628 503.647 818.049 526.121 807.213C552.395 794.761 571.232 784.896 582.712 777.78C588.937 773.899 592.089 771.149 592.089 769.37C591.604 767.915 589.179 767.106 584.652 767.106C583.358 767.106 581.822 767.349 580.125 767.753C577.942 767.753 575.921 767.996 573.981 768.4Z"  />
<path d="M969.63 914.922C957.746 909.585 948.53 902.631 941.82 894.222C935.595 886.298 931.472 876.433 929.532 864.789C929.127 860.907 928.885 857.188 928.885 853.468C928.885 841.824 931.633 828.887 936.969 814.655C944.083 795.491 953.946 777.944 966.396 761.934C973.51 753.363 981.029 745.438 989.032 738.323C996.308 731.692 1004.23 725.951 1012.64 721.18C1024.68 715.358 1033.09 712.043 1037.86 711.153H1040.77C1045.06 711.153 1050.31 712.447 1056.62 715.035C1065.67 718.754 1071.9 724.738 1075.37 733.147C1079.01 741.557 1079.41 751.422 1076.67 762.581C1074.48 771.475 1070.68 776.084 1065.35 776.489C1059.93 776.489 1056.62 772.284 1055.32 763.875C1053.14 748.834 1044.65 745.681 1029.78 754.495C1014.66 763.389 1000.43 779.885 987.092 803.981C977.795 821.043 973.348 835.275 973.834 846.676C973.834 857.511 978.846 865.112 989.032 869.64C999.784 874.815 1018.54 874.654 1045.3 868.993C1071.98 863.657 1113.29 851.528 1169.15 832.768C1239.81 809.076 1295.75 792.58 1336.98 783.281C1377.89 774.063 1398.42 773.578 1398.42 781.987C1398.42 783.281 1396.32 785.464 1392.28 788.456C1387.51 791.286 1381.44 794.763 1374.17 798.806C1359.94 806.407 1341.27 815.464 1318.23 825.976C1294.94 836.326 1270.53 846.918 1245.14 857.673C1223.32 866.568 1201.97 874.977 1181.12 882.901C1159.77 890.502 1140.53 897.133 1123.56 902.955C1095.1 911.85 1065.43 917.429 1034.63 919.774C1025.73 920.663 1017.57 921.068 1010.05 921.068C992.104 921.068 978.684 919.046 969.63 914.922Z"  />
<path d="M1624.99 549.106C1621.27 554.928 1616.58 561.235 1610.76 567.866C1605.1 574.577 1598.96 581.288 1592.33 587.919C1580.2 600.452 1567.26 612.501 1553.52 624.145C1540.1 635.789 1528.46 645.007 1518.6 651.637C1502.59 662.23 1490.54 670.882 1482.38 677.513C1474.38 683.82 1470.41 688.51 1470.41 691.744H1494.02C1504.53 691.34 1514.23 691.582 1523.12 692.391C1537.51 692.391 1551.26 693.038 1564.19 694.332C1577.13 695.625 1583.03 698.375 1581.98 702.418C1581.98 705.49 1576.64 708.401 1566.13 711.151C1555.78 714.223 1541.56 716.973 1523.45 719.56C1513.1 721.097 1502.11 722.714 1490.46 724.412C1478.34 725.706 1466.61 727.323 1455.22 729.264C1451.98 736.379 1446.81 747.053 1439.69 761.284C1436.62 767.592 1433.71 774.465 1430.96 781.985C1428.38 789.99 1426.11 798.157 1424.17 806.566C1419.81 821.445 1416.82 835.838 1415.12 849.584C1413.58 863.411 1413.58 872.225 1415.12 876.107C1417.7 882.414 1420.78 886.699 1424.5 889.044C1428.38 891.632 1441.15 887.75 1462.98 877.4C1472.03 872.71 1483.43 866.565 1497.25 858.964C1511 851.444 1527.49 842.307 1546.73 831.471C1590.22 806.485 1624.5 790.233 1649.56 782.632C1674.54 775.112 1692.25 771.796 1702.6 772.605C1705.59 773.09 1707.28 773.899 1707.77 775.192V775.839C1708.17 777.133 1707.28 778.103 1705.18 778.75C1697.18 783.521 1683.19 790.879 1663.14 800.744C1643.1 810.448 1620.78 823.385 1596.21 839.558C1559.5 864.382 1532.58 881.929 1515.36 892.279C1498.31 902.629 1482.86 911.604 1469.12 919.124C1449.07 930.607 1430.72 937.076 1414.15 938.531H1408.97C1394.75 939.016 1383.59 933.356 1375.67 921.712C1371.62 916.375 1369.12 905.055 1368.23 887.75C1367.42 870.77 1368.07 852.657 1370.17 833.412C1371.06 823.305 1372.59 813.52 1374.7 803.979C1376.64 794.761 1379.14 786.351 1382.13 778.75C1386.66 767.106 1390.95 756.999 1395.07 748.347C1399.35 739.533 1401.54 733.387 1401.54 729.91C1398.06 729.506 1393.86 729.264 1388.92 729.264C1383.51 729.264 1380.03 728.778 1378.25 727.646C1371.14 722.471 1367.58 715.841 1367.58 707.593V705.005C1368.47 695.302 1376.88 690.936 1392.81 691.744H1418.35L1429.67 672.984C1433.31 666.354 1437.75 658.672 1442.93 650.02C1454.97 627.864 1469.93 604.9 1487.88 581.127C1505.34 557.192 1522.64 535.845 1539.94 517.085C1548.51 507.22 1556.84 498.244 1564.84 490.239C1573.25 482.315 1580.52 476.25 1586.83 472.126C1593.46 466.951 1599.76 463.232 1605.58 460.806C1611.4 458.218 1616.66 456.925 1621.43 456.925H1622.4C1635.33 456.52 1643.1 465.9 1645.68 485.064C1648.27 504.713 1641.32 526.061 1624.99 549.106ZM1586.18 512.233C1581.65 516.762 1575.59 523.23 1568.07 531.64C1560.47 539.888 1552.71 548.621 1544.79 557.839C1533.15 572.07 1522.32 585.493 1512.45 597.946C1502.75 610.883 1497.9 618.484 1497.9 620.587C1497.9 621.719 1498.31 622.204 1499.19 622.204C1501.94 622.204 1508.41 618.161 1518.6 609.913C1532.34 598.512 1545.92 585.574 1559.34 571.1C1575.03 553.472 1587.56 537.947 1596.85 524.524C1605.26 512.476 1609.46 504.147 1609.46 499.619C1609.46 499.215 1609.22 498.81 1608.82 498.325V497.678C1608.82 497.274 1608.58 497.032 1608.17 497.032H1607.52C1605.75 497.032 1603.32 498.325 1600.09 500.913C1595.72 503.743 1591.11 507.543 1586.18 512.233Z"  />
</g>
<defs>
<clipPath id="clip0_139_1702">
<rect width="1440" height="1024" fill="white"/>
</clipPath>
</defs>
</svg>
