<svg width="997" height="587" viewBox="0 0 997 587" fill="none" xmlns="http://www.w3.org/2000/svg">
<g clip-path="url(#clip0_141_1894)">
<mask id="mask0_141_1894" style="mask-type:luminance" maskUnits="userSpaceOnUse" x="-28" y="-160" width="1060" height="939">
<path d="M-28 -160L1032 -160L1032 779L-28 779L-28 -160Z" fill="white"/>
</mask>
<g mask="url(#mask0_141_1894)">
<path d="M1027.45 159.338C1028.13 159.338 1028.8 159.226 1029.43 158.987C1030.07 158.748 1030.63 158.414 1031.12 157.983C1031.6 157.553 1031.98 157.059 1032.25 156.501C1032.5 155.927 1032.65 155.338 1032.65 154.732C1032.65 154.126 1032.5 153.537 1032.25 152.963C1031.98 152.405 1031.6 151.911 1031.12 151.481C1030.63 151.05 1030.07 150.715 1029.43 150.476C1028.8 150.237 1028.13 150.126 1027.45 150.126L857.606 150.126L857.606 4.25923L1027.45 4.25923C1028.13 4.25923 1028.8 4.14767 1029.43 3.90859C1030.07 3.66952 1030.63 3.35076 1031.12 2.90449C1031.6 2.47416 1031.98 1.98007 1032.25 1.42223C1032.5 0.848457 1032.65 0.258741 1032.65 -0.346909C1032.65 -0.952563 1032.5 -1.54227 1032.25 -2.10011C1031.98 -2.67389 1031.6 -3.16797 1031.12 -3.5983C1030.63 -4.02863 1030.07 -4.36334 1029.43 -4.60241C1028.8 -4.84149 1028.13 -4.95305 1027.45 -4.95305L857.606 -4.95305L857.606 -155.394C857.606 -156.015 857.48 -156.589 857.211 -157.163C856.959 -157.721 856.581 -158.231 856.095 -158.661C855.609 -159.092 855.034 -159.426 854.404 -159.649C853.756 -159.888 853.108 -160 852.407 -160C851.723 -160 851.057 -159.888 850.428 -159.649C849.78 -159.426 849.222 -159.092 848.736 -158.661C848.251 -158.231 847.873 -157.721 847.603 -157.163C847.351 -156.589 847.207 -156.015 847.207 -155.394L847.207 -4.95305L682.547 -4.95306L682.547 -155.394C682.547 -156.015 682.421 -156.589 682.151 -157.163C681.899 -157.721 681.521 -158.231 681.036 -158.661C680.55 -159.092 679.974 -159.426 679.344 -159.649C678.715 -159.888 678.049 -160 677.347 -160C676.664 -160 675.998 -159.888 675.368 -159.649C674.721 -159.426 674.163 -159.092 673.677 -158.661C673.191 -158.231 672.813 -157.721 672.544 -157.163C672.292 -156.589 672.148 -156.015 672.148 -155.394L672.148 -4.95306L507.523 -4.95306L507.523 -155.394C507.523 -156.015 507.398 -156.589 507.128 -157.163C506.858 -157.721 506.48 -158.231 505.994 -158.661C505.508 -159.092 504.951 -159.426 504.321 -159.649C503.673 -159.888 503.008 -160 502.324 -160C501.64 -160 500.974 -159.888 500.327 -159.649C499.697 -159.426 499.139 -159.092 498.654 -158.661C498.168 -158.231 497.79 -157.721 497.52 -157.163C497.25 -156.589 497.124 -156.015 497.124 -155.394L497.124 -4.95306L332.5 -4.95306L332.5 -155.394C332.5 -156.015 332.356 -156.589 332.104 -157.163C331.834 -157.721 331.457 -158.231 330.971 -158.661C330.485 -159.092 329.927 -159.426 329.28 -159.649C328.65 -159.888 327.984 -160 327.3 -160C326.599 -160 325.933 -159.888 325.303 -159.649C324.674 -159.426 324.098 -159.092 323.612 -158.661C323.126 -158.231 322.749 -157.721 322.497 -157.163C322.227 -156.589 322.101 -156.015 322.101 -155.394L322.101 -4.95306L157.441 -4.95306L157.441 -155.394C157.441 -156.015 157.297 -156.589 157.045 -157.163C156.775 -157.721 156.397 -158.231 155.911 -158.661C155.426 -159.092 154.868 -159.426 154.22 -159.649C153.59 -159.888 152.925 -160 152.241 -160C151.539 -160 150.892 -159.888 150.244 -159.649C149.614 -159.426 149.056 -159.092 148.553 -158.661C148.067 -158.231 147.689 -157.721 147.437 -157.163C147.167 -156.589 147.041 -156.015 147.041 -155.394L147.041 -4.95306L-22.8004 -4.95306C-23.4841 -4.95306 -24.1498 -4.8415 -24.7795 -4.60242C-25.4272 -4.36335 -25.9849 -4.02864 -26.4707 -3.59831C-26.9565 -3.16798 -27.3343 -2.6739 -27.6042 -2.10012C-27.8561 -1.54228 -28 -0.952574 -28 -0.346919C-28 0.258731 -27.8561 0.848447 -27.6042 1.42222C-27.3343 1.98006 -26.9565 2.47415 -26.4707 2.90448C-25.9849 3.35075 -25.4272 3.66951 -24.7795 3.90858C-24.1498 4.14766 -23.4841 4.25922 -22.8004 4.25922L147.041 4.25923L147.041 150.126L-22.8004 150.126C-23.4841 150.126 -24.1498 150.237 -24.7795 150.476C-25.4272 150.715 -25.9849 151.05 -26.4707 151.48C-26.9565 151.911 -27.3343 152.405 -27.6042 152.963C-27.8561 153.537 -28 154.126 -28 154.732C-28 155.338 -27.8561 155.927 -27.6042 156.501C-27.3343 157.059 -26.9565 157.553 -26.4707 157.983C-25.9849 158.414 -25.4272 158.748 -24.7795 158.987C-24.1498 159.226 -23.4841 159.338 -22.8004 159.338L147.041 159.338L147.041 305.173L-22.8004 305.173C-23.4841 305.173 -24.1498 305.3 -24.7795 305.523C-25.4272 305.762 -25.9849 306.097 -26.4707 306.527C-26.9565 306.958 -27.3343 307.452 -27.6042 308.026C-27.8561 308.583 -28 309.173 -28 309.779C-28 310.4 -27.8561 310.99 -27.6042 311.548C-27.3343 312.106 -26.9565 312.616 -26.4707 313.046C-25.9849 313.476 -25.4272 313.811 -24.7795 314.034C-24.1498 314.273 -23.4841 314.385 -22.8004 314.385L147.041 314.385L147.041 460.236L-22.8004 460.236C-23.4841 460.236 -24.1498 460.347 -24.7795 460.586C-25.4272 460.809 -25.9849 461.144 -26.4707 461.574C-26.9565 462.021 -27.3343 462.515 -27.6042 463.073C-27.8561 463.646 -28 464.22 -28 464.842C-28 465.447 -27.8561 466.037 -27.6042 466.595C-27.3343 467.169 -26.9565 467.663 -26.4707 468.093C-25.9849 468.523 -25.4272 468.858 -24.7795 469.097C-24.1498 469.32 -23.4841 469.448 -22.8004 469.448L147.041 469.448L147.041 615.314L-22.8004 615.314C-23.4841 615.314 -24.1498 615.426 -24.7795 615.665C-25.4272 615.888 -25.9849 616.223 -26.4707 616.653C-26.9565 617.084 -27.3343 617.594 -27.6042 618.151C-27.8561 618.709 -28 619.299 -28 619.921C-28 620.526 -27.8561 621.116 -27.6042 621.674C-27.3343 622.247 -26.9565 622.742 -26.4707 623.172C-25.9849 623.602 -25.4272 623.937 -24.7795 624.176C-24.1498 624.399 -23.4841 624.527 -22.8004 624.527L147.041 624.527L147.041 774.967C147.041 775.573 147.167 776.163 147.437 776.737C147.689 777.294 148.067 777.789 148.553 778.219C149.057 778.649 149.614 778.984 150.244 779.223C150.892 779.462 151.539 779.574 152.241 779.574C152.925 779.574 153.59 779.462 154.22 779.223C154.868 778.984 155.426 778.649 155.911 778.219C156.397 777.789 156.775 777.294 157.045 776.737C157.297 776.163 157.441 775.573 157.441 774.967L157.441 624.527L322.101 624.527L322.101 774.967C322.101 775.573 322.227 776.163 322.497 776.737C322.749 777.294 323.126 777.789 323.612 778.219C324.098 778.649 324.674 778.984 325.303 779.223C325.933 779.462 326.599 779.574 327.3 779.574C327.984 779.574 328.65 779.462 329.28 779.223C329.927 778.984 330.485 778.649 330.971 778.219C331.457 777.789 331.834 777.294 332.104 776.737C332.356 776.163 332.5 775.573 332.5 774.967L332.5 624.527L497.124 624.527L497.124 774.967C497.124 775.573 497.25 776.163 497.52 776.737C497.79 777.294 498.168 777.789 498.654 778.219C499.139 778.649 499.697 778.984 500.327 779.223C500.975 779.462 501.64 779.574 502.324 779.574C503.008 779.574 503.673 779.462 504.321 779.223C504.951 778.984 505.508 778.649 505.994 778.219C506.48 777.789 506.858 777.294 507.128 776.737C507.398 776.163 507.523 775.573 507.523 774.967L507.523 624.527L672.148 624.527L672.148 774.967C672.148 775.573 672.292 776.163 672.544 776.737C672.813 777.294 673.191 777.789 673.677 778.219C674.163 778.649 674.721 778.984 675.368 779.223C675.998 779.462 676.664 779.574 677.347 779.574C678.049 779.574 678.715 779.462 679.344 779.223C679.974 778.984 680.55 778.649 681.036 778.219C681.521 777.789 681.899 777.294 682.151 776.737C682.421 776.163 682.547 775.573 682.547 774.967L682.547 624.527L847.207 624.527L847.207 774.967C847.207 775.573 847.351 776.163 847.603 776.737C847.873 777.294 848.251 777.789 848.736 778.219C849.222 778.649 849.78 778.984 850.428 779.223C851.057 779.462 851.723 779.574 852.407 779.574C853.108 779.574 853.756 779.462 854.404 779.223C855.034 778.984 855.609 778.649 856.095 778.219C856.581 777.789 856.959 777.294 857.211 776.737C857.48 776.163 857.606 775.573 857.606 774.967L857.606 624.527L1027.45 624.527C1028.13 624.527 1028.8 624.399 1029.43 624.176C1030.07 623.937 1030.63 623.602 1031.12 623.172C1031.6 622.742 1031.98 622.248 1032.25 621.674C1032.5 621.116 1032.65 620.526 1032.65 619.921C1032.65 619.299 1032.5 618.709 1032.25 618.151C1031.98 617.594 1031.6 617.084 1031.12 616.653C1030.63 616.223 1030.07 615.888 1029.43 615.665C1028.8 615.426 1028.13 615.314 1027.45 615.314L857.606 615.314L857.606 469.448L1027.45 469.448C1028.13 469.448 1028.8 469.32 1029.43 469.097C1030.07 468.858 1030.63 468.523 1031.12 468.093C1031.6 467.663 1031.98 467.169 1032.25 466.595C1032.5 466.037 1032.65 465.447 1032.65 464.842C1032.65 464.22 1032.5 463.646 1032.25 463.073C1031.98 462.515 1031.6 462.005 1031.12 461.574C1030.63 461.144 1030.07 460.809 1029.43 460.586C1028.8 460.347 1028.13 460.236 1027.45 460.236L857.606 460.236L857.606 314.385L1027.45 314.385C1028.13 314.385 1028.8 314.273 1029.43 314.034C1030.07 313.811 1030.63 313.477 1031.12 313.046C1031.6 312.616 1031.98 312.106 1032.25 311.548C1032.5 310.99 1032.65 310.4 1032.65 309.779C1032.65 309.173 1032.5 308.583 1032.25 308.026C1031.98 307.452 1031.6 306.958 1031.12 306.527C1030.63 306.097 1030.07 305.762 1029.43 305.523C1028.8 305.3 1028.13 305.173 1027.45 305.173L857.606 305.173L857.606 159.338L1027.45 159.338ZM847.207 4.25923L847.207 150.126L682.547 150.126L682.547 4.25923L847.207 4.25923ZM672.148 4.25923L672.148 150.126L507.523 150.126L507.523 4.25923L672.148 4.25923ZM497.124 314.385L497.124 460.236L332.5 460.236L332.5 314.385L497.124 314.385ZM332.5 305.173L332.5 159.338L497.124 159.338L497.124 305.173L332.5 305.173ZM507.523 314.385L672.148 314.385L672.148 460.236L507.523 460.236L507.523 314.385ZM507.523 305.173L507.523 159.338L672.148 159.338L672.148 305.173L507.523 305.173ZM497.124 4.25923L497.124 150.126L332.5 150.126L332.5 4.25923L497.124 4.25923ZM157.441 4.25923L322.101 4.25923L322.101 150.126L157.441 150.126L157.441 4.25923ZM157.441 159.338L322.101 159.338L322.101 305.173L157.441 305.173L157.441 159.338ZM157.441 314.385L322.101 314.385L322.101 460.236L157.441 460.236L157.441 314.385ZM157.441 615.314L157.441 469.448L322.101 469.448L322.101 615.314L157.441 615.314ZM332.5 615.314L332.5 469.448L497.124 469.448L497.124 615.314L332.5 615.314ZM507.523 615.314L507.523 469.448L672.148 469.448L672.148 615.314L507.523 615.314ZM847.207 615.314L682.547 615.314L682.547 469.448L847.207 469.448L847.207 615.314ZM847.207 460.236L682.547 460.236L682.547 314.385L847.207 314.385L847.207 460.236ZM847.207 305.173L682.547 305.173L682.547 159.338L847.207 159.338L847.207 305.173Z" fill="#CB973E" fill-opacity="0.3"/>
</g>
<mask id="mask1_141_1894" style="mask-type:luminance" maskUnits="userSpaceOnUse" x="45" y="126" width="371" height="365">
<path d="M45.0801 126.362H415.955V490.857H45.0801V126.362Z" fill="white"/>
</mask>
<g mask="url(#mask1_141_1894)">
<path d="M381.019 269.214H381.774C387.718 269.214 392.531 274.022 392.531 279.962V479.631C392.531 485.572 387.718 490.38 381.774 490.38H71.2845C65.3397 490.38 60.5272 485.572 60.5272 479.631V279.962C60.5272 274.15 65.1732 269.402 70.9514 269.236C67.5766 267.96 65.0233 264.948 64.4571 261.205L46.1454 138.78C45.224 132.612 49.9976 127.072 56.2532 127.072H404.487C411.015 127.072 415.871 133.112 414.45 139.473L387.341 261.892C386.586 265.326 384.138 268.021 381.019 269.214Z" fill="#F8D6BF"/>
</g>
<path d="M395.462 151.769L371.139 250.079C370.218 253.822 366.493 256.496 362.203 256.496H90.6461C86.1056 256.496 82.2535 253.528 81.5818 249.513L65.1518 151.204C64.3136 146.251 68.6043 141.792 74.2161 141.792H386.526C392.365 141.792 396.722 146.645 395.462 151.769ZM358.728 301.97H94.3096C90.9403 301.97 88.2205 304.688 88.2205 308.055V402.47C88.2205 405.837 90.9403 408.555 94.3096 408.555H358.728C362.097 408.555 364.817 405.837 364.817 402.47V308.055C364.817 304.688 362.097 301.97 358.728 301.97ZM270.894 426.042H182.144C180.445 426.042 179.063 427.423 179.063 429.115V464.884C179.063 466.575 180.445 467.956 182.144 467.956H270.894C272.592 467.956 273.974 466.575 273.974 464.884V429.115C273.974 427.423 272.614 426.042 270.894 426.042Z" fill="black"/>
<path d="M32.6025 475.632L117.273 514.729L108.292 542.921L96.5298 537.213L58.9127 639.677L-27.0342 598.035L27.6401 503.786L31.1593 505.505L18.4926 499.354L32.6025 475.632ZM399.359 529.743L385.249 506.947L300.601 544.535L309.576 571.64L321.344 566.16L358.961 664.674L444.886 624.619L390.234 534.013L399.359 529.743ZM563.01 350.723C558.442 356.081 550.637 357.273 544.67 353.529L510.595 332.148L511.305 331.316C493.304 338.593 472.35 334.222 458.807 319.707C445.785 305.775 443.442 287.577 451.835 272.458C468.287 242.796 475.553 238.72 475.553 238.72H475.57C484.595 229.873 496.968 224.393 510.611 224.393C538.243 224.393 560.64 246.773 560.64 274.383C560.64 289.796 553.651 303.579 542.661 312.741L562.044 331.249C567.445 336.457 567.883 345.016 563.01 350.723ZM552.58 343.756L531.715 319.685C531.649 319.707 531.587 319.746 531.526 319.768L520.619 326.38L551.809 344.699C552.414 345.032 553.041 344.283 552.58 343.756Z" fill="#BA442B"/>
<path d="M369.213 497.407L376.834 510.691L310.436 540.159L307.65 533.508L299.785 528.55C289.044 521.795 279.33 513.658 270.877 504.373L267.38 500.524C265.598 498.494 264.216 496.215 263.278 493.769L244.794 445.222C243.012 440.557 245.671 435.454 250.8 433.696C256.012 431.921 260.241 432.903 264.471 438.904L282.322 464.173L281.678 420.646C281.739 418.139 281.256 415.626 280.229 413.286L270.244 390.462C268.678 386.885 270.477 382.831 274.329 381.2C278.159 379.586 282.744 380.906 284.814 384.234L299.279 407.512C301.144 410.501 302.421 413.746 303.087 417.09C303.087 417.09 307.089 438.888 307.422 440.64L307.883 427.401C308.216 417.529 305.685 407.739 300.556 399.165L290.487 382.287C288.25 378.499 290.637 375.365 293.856 373.441C293.984 373.335 294.128 373.252 294.278 373.147C294.672 372.897 295.072 372.725 295.488 372.581C298.924 371.094 303.048 372.098 305.202 374.944C305.202 374.944 318.64 392.304 322.198 398.621C326.556 406.38 329.88 432.215 329.88 432.215L330.386 411.505C330.408 408.116 329.842 404.772 328.731 401.55L319.206 374.106C317.619 369.924 320.505 365.448 325.34 364.611C329.192 363.962 333.022 365.886 334.382 369.192L347.465 400.69C348.553 403.308 349.18 406.07 349.308 408.871L351.506 433.424L354.77 398.31C354.981 396.025 356.302 394.062 358.206 392.808V392.348C358.206 391.949 358.516 391.638 358.916 391.638H360.864C361.93 391.366 363.079 391.278 364.256 391.405C364.672 391.45 365.088 391.533 365.51 391.638H367.603C368.003 391.638 368.313 391.949 368.313 392.348V392.914C370.428 394.378 371.727 396.696 371.622 399.248L370.911 451.5L369.213 497.407ZM511.804 233.905C490.495 233.905 473.227 251.166 473.227 272.458C473.227 293.75 490.495 311.005 511.804 311.005C533.113 311.005 550.387 293.75 550.387 272.458C550.387 251.166 533.113 233.905 511.804 233.905ZM173.118 403.979C173.351 403.535 173.184 402.992 172.746 402.742L170.798 401.716C169.771 400.712 168.516 399.919 167.051 399.398C166.529 399.209 166.024 399.059 165.524 398.937L163.01 397.617C162.571 397.39 162.027 397.556 161.772 397.994L161.417 398.682C158.569 399.126 155.977 400.984 153.357 404.833L135.506 431.106L136.156 385.82C136.089 383.208 136.572 380.59 137.599 378.144L147.585 354.428C148.334 352.625 148.317 350.723 147.646 349.053L148.084 348.232C148.295 347.861 148.145 347.4 147.773 347.19L145.259 345.87C144.737 345.454 144.149 345.099 143.499 344.805C143.227 344.677 142.978 344.594 142.706 344.511L139.503 342.819C139.125 342.608 138.665 342.753 138.454 343.13L137.788 344.405C135.839 344.949 134.102 346.186 133.036 347.961L118.571 372.165C116.706 375.26 115.429 378.626 114.763 382.137C114.763 382.137 110.761 404.811 110.428 406.652L109.968 392.869C109.635 382.598 112.166 372.414 117.294 363.501L127.363 345.953C128.557 343.84 128.429 341.937 127.569 340.307L127.741 340.057C127.968 339.702 127.863 339.22 127.508 338.992L119.637 333.906C119.282 333.679 118.799 333.784 118.571 334.139L117.861 335.248C115.807 335.537 113.881 336.607 112.649 338.321C112.649 338.321 99.2103 356.369 95.6468 362.958C91.295 371.033 87.9646 397.889 87.9646 397.889L87.465 376.347C87.4428 372.83 88.009 369.342 89.1192 365.992L98.6441 337.461C99.3324 335.559 99.1659 333.596 98.3722 331.898L98.5387 331.46C98.683 331.061 98.4943 330.623 98.1002 330.456L97.0955 330.057C95.941 328.826 94.3701 327.927 92.5106 327.589C91.839 327.467 91.1674 327.445 90.5235 327.467L89.3911 327.029C88.9915 326.879 88.553 327.067 88.3865 327.467L88.1977 327.944C86.0607 328.698 84.3067 330.268 83.4686 332.381L70.3856 365.115C69.2976 367.833 68.6649 370.717 68.5427 373.629L66.3447 399.165L63.0587 362.647C62.8477 360.262 61.5322 358.232 59.6228 356.935V356.435C59.6228 356.036 59.3119 355.72 58.9123 355.72H56.964C55.8983 355.432 54.7493 355.348 53.5781 355.493C53.1562 355.537 52.7399 355.62 52.3181 355.72H50.2255C49.8258 355.72 49.515 356.036 49.515 356.435V357.04C47.4002 358.565 46.1013 360.972 46.2068 363.629L46.9394 417.95L48.6546 465.677L41.0391 479.504L107.436 510.169L110.217 503.242L118.088 498.078C128.829 491.051 138.543 482.576 146.996 472.915L150.493 468.899C152.269 466.786 153.651 464.423 154.595 461.872L173.079 411.361C173.917 409.059 173.767 406.63 172.807 404.539L173.118 403.979Z" fill="#E1946C"/>
<mask id="mask2_141_1894" style="mask-type:luminance" maskUnits="userSpaceOnUse" x="-28" y="126" width="596" height="540">
<path d="M-28 126.362H568V666H-28V126.362Z" fill="white"/>
</mask>
<g mask="url(#mask2_141_1894)">
<path d="M90.646 257.19H362.203C366.848 257.19 370.806 254.322 371.811 250.245L396.134 151.936C396.739 149.452 396.195 146.939 394.563 144.87C392.72 142.507 389.706 141.104 386.526 141.104H74.216C71.1187 141.104 68.2712 142.38 66.384 144.598C64.7521 146.523 64.086 148.908 64.4801 151.31L80.9157 249.619C81.6484 254.006 85.7281 257.19 90.646 257.19ZM67.433 145.497C69.0427 143.595 71.5128 142.485 74.216 142.485H386.526C389.312 142.485 391.904 143.7 393.497 145.724C394.857 147.46 395.318 149.551 394.813 151.604L370.49 249.907C369.657 253.34 366.16 255.808 362.225 255.808H90.646C86.483 255.808 82.8806 253.046 82.2756 249.386L65.84 151.082C65.507 149.097 66.0731 147.105 67.433 145.497ZM400.364 530.037L385.543 506.066L377.151 509.793L369.929 497.219L370.157 491.03H381.774C388.074 491.03 393.225 485.905 393.225 479.587V279.963C393.225 273.962 388.557 269.025 382.651 268.565C385.332 267.101 387.342 264.55 388.035 261.394L415.117 139.557C415.833 136.334 415.056 133.012 412.986 130.416C410.91 127.865 407.813 126.379 404.488 126.379H56.254C53.0734 126.379 50.0594 127.76 47.989 130.145C45.913 132.53 44.9916 135.708 45.4523 138.825L63.7918 260.662C64.3136 264.172 66.556 267.101 69.5867 268.67C64.086 269.486 59.8564 274.233 59.8564 279.963V356.247C58.0135 355.055 55.7544 354.534 53.5119 354.783C48.7827 355.349 45.3468 359.154 45.5356 363.63L46.2516 417.99L47.9446 465.533L40.7231 478.628L32.8966 475.006L32.3305 474.757L17.5323 499.649L26.6799 504.08L-28 598.329L59.2902 640.643L96.9072 538.174L108.691 543.903L118.089 514.374L108.292 509.854L110.762 503.725L118.466 498.684C122.085 496.321 125.582 493.769 128.951 491.091H261.519L262.629 494.019C263.589 496.554 265.015 498.894 266.858 500.985L270.35 504.834C278.831 514.163 288.606 522.339 299.385 529.139L307.09 533.992L309.538 539.826L299.741 544.175L309.16 572.6L320.944 567.103L358.561 665.618L445.846 624.935L391.172 534.324L400.364 530.037ZM65.1517 260.451L46.8122 138.614C46.3959 135.874 47.2119 133.112 49.0103 131.021C50.8309 128.93 53.4509 127.738 56.2317 127.738H404.466C407.374 127.738 410.077 129.035 411.898 131.276C413.719 133.533 414.385 136.44 413.757 139.263L386.676 261.1C385.71 265.448 381.919 268.482 377.439 268.526H74.4269C69.7976 268.46 65.8233 265.01 65.1517 260.451ZM71.2852 269.907H381.774C387.319 269.907 391.843 274.422 391.843 279.963V479.632C391.843 485.173 387.319 489.693 381.774 489.693H370.218L371.644 451.517L372.355 399.293C372.521 395.316 369.657 391.911 365.511 390.946V308.055C365.511 304.311 362.475 301.278 358.728 301.278H94.3095C90.5628 301.278 87.5265 304.311 87.5265 308.055V327.467C85.4117 328.322 83.6744 329.936 82.8196 332.11L69.7366 364.883C68.6264 367.69 67.977 370.635 67.8493 373.585L66.3229 391.345L63.7474 362.604C63.5587 360.618 62.6817 358.777 61.2163 357.357V279.963C61.2163 274.422 65.7179 269.907 71.2852 269.907ZM367.831 395.466V404.773C367.831 406.57 366.371 408.056 364.545 408.056H362.036C360.215 408.056 358.75 406.592 358.75 404.773V395.466C358.75 393.957 359.777 392.704 361.159 392.327C361.281 392.304 361.409 392.266 361.531 392.243C361.703 392.221 361.869 392.199 362.058 392.199H364.545C365.072 392.282 365.572 392.41 366.055 392.576C367.098 393.103 367.831 394.19 367.831 395.466ZM354.121 398.267L353.222 407.867H349.913C349.686 405.338 349.097 402.826 348.115 400.441L335.032 368.943C333.528 365.321 329.403 363.23 325.235 363.946C322.576 364.406 320.339 365.909 319.085 368.083C317.975 370.03 317.786 372.265 318.58 374.318L328.105 401.761C328.793 403.747 329.237 405.799 329.487 407.867H326.156C325.152 403.935 324.025 400.441 322.809 398.289C319.268 391.994 306.313 375.238 305.769 374.528C303.382 371.367 298.758 370.302 294.989 372.06C293.207 372.898 290.088 374.733 289.172 377.706C288.667 379.315 288.917 380.968 289.905 382.62L299.968 399.498C301.583 402.177 302.882 404.983 303.97 407.867H300.412C300.473 408.012 300.495 408.161 300.534 408.306C300.307 407.906 300.118 407.512 299.868 407.113L285.403 383.835C283.161 380.235 278.182 378.793 274.08 380.529C271.943 381.428 270.333 383.042 269.534 385.05C268.801 386.886 268.845 388.899 269.639 390.696L277.155 407.867H174.295C174.228 406.614 173.94 405.355 173.374 404.162C172.18 401.633 170.021 399.709 167.279 398.749C161.356 396.636 156.899 398.394 152.814 404.434L150.471 407.867H136.528L136.844 385.798C136.783 383.269 137.244 380.779 138.227 378.416L148.212 354.7C149.927 350.64 147.962 346.02 143.772 344.179C143.189 343.929 142.578 343.74 141.973 343.613C141.241 343.363 140.486 343.319 139.753 343.446C136.806 343.552 133.975 345.033 132.426 347.606L117.967 371.805C116.057 374.989 114.742 378.416 114.048 382.016C114.048 382.016 112.166 392.765 110.867 400.047L110.64 392.826C110.301 382.665 112.793 372.643 117.861 363.818L127.93 346.27C128.913 344.534 129.162 342.82 128.641 341.123C127.697 338.072 124.622 336.186 122.862 335.332C122.818 335.31 122.779 335.31 122.735 335.288L122.696 335.266C121.896 334.766 120.997 334.517 120.076 334.533C117.023 334.156 113.903 335.393 112.083 337.9C111.539 338.632 98.5613 356.059 95.02 362.626C92.4667 367.373 90.2686 378.272 88.8865 386.703V369.403C89.1196 368.316 89.3916 367.246 89.7468 366.181L99.2496 337.673C100.043 335.499 99.838 333.091 98.6668 331.061C97.4068 328.865 95.1921 327.362 92.5943 326.902C91.3177 326.669 90.0632 326.752 88.8698 327.024V308.055C88.8698 305.088 91.2955 302.659 94.2706 302.659H358.689C361.659 302.659 364.084 305.088 364.084 308.055V390.735C361.531 390.507 359 391.239 357.096 392.787C355.397 394.207 354.309 396.154 354.121 398.267ZM353.099 409.248L351.551 425.915L350.063 409.248H353.099ZM321.555 368.793C322.077 367.606 323.037 366.686 324.297 366.225C324.88 365.992 325.507 365.887 326.117 365.887C328.082 365.887 329.947 367.019 330.719 368.882L333.672 376.076C334.133 377.224 334.133 378.477 333.628 379.609C333.106 380.801 332.146 381.722 330.886 382.182C328.354 383.142 325.468 381.955 324.48 379.503L321.533 372.31C321.05 371.178 321.072 369.925 321.555 368.793ZM329.714 411.467L329.403 424.163C328.687 419.787 327.683 414.246 326.495 409.226H329.631C329.692 409.981 329.714 410.735 329.714 411.467ZM292.414 376.597C292.58 375.804 292.98 375.094 293.524 374.484C294.129 374.068 294.823 373.646 295.578 373.314C295.994 373.125 296.432 372.959 296.871 372.853C296.999 372.853 297.126 372.831 297.248 372.831C298.88 372.831 300.473 373.608 301.417 375.005L305.769 381.495C306.479 382.537 306.712 383.791 306.462 385.005C306.191 386.259 305.436 387.329 304.303 388.017C302 389.442 298.947 388.81 297.459 386.614L293.108 380.13C292.391 379.043 292.164 377.812 292.414 376.597ZM307.212 427.363L306.984 434.285C305.685 427.28 303.804 416.947 303.804 416.925C303.26 414.246 302.355 411.672 301.078 409.226H304.514C306.501 415.061 307.423 421.19 307.212 427.363ZM272.026 384.65C272.32 383.708 272.903 382.892 273.68 382.288C273.974 382.121 274.285 381.933 274.602 381.783C275.29 381.495 276.022 381.323 276.755 381.239C278.537 381.239 280.23 382.16 281.129 383.752L284.898 390.568C285.509 391.655 285.631 392.914 285.275 394.107C284.898 395.338 284.043 396.342 282.85 396.947C280.441 398.184 277.427 397.307 276.172 394.983L272.403 388.167C271.798 387.096 271.671 385.843 272.026 384.65ZM164.431 399.415C164.892 399.498 165.353 399.587 165.836 399.731C165.98 399.792 166.108 399.836 166.258 399.897L169.083 401.384C170.088 401.927 170.837 402.826 171.175 403.913C171.509 405 171.403 406.17 170.859 407.174L166.696 415.022C166.152 416.026 165.247 416.775 164.159 417.113C163.071 417.446 161.9 417.341 160.896 416.797L158.07 415.311C155.978 414.207 155.184 411.611 156.289 409.52L160.457 401.678C161.229 400.169 162.822 399.354 164.431 399.415ZM136.528 409.248H149.55L136.256 428.827L136.528 409.248ZM146.369 348.194C146.641 349.115 146.558 350.074 146.12 350.912L141.074 360.407C140.636 361.245 139.881 361.871 138.959 362.143C138.038 362.437 137.078 362.332 136.239 361.894L133.83 360.618C132.093 359.697 131.421 357.523 132.343 355.787L137.388 346.292C137.705 345.704 138.166 345.244 138.709 344.933C140.214 344.661 141.807 344.783 143.272 345.432C144.504 345.976 145.509 346.813 146.225 347.817C146.264 347.945 146.325 348.05 146.369 348.194ZM118.799 335.854C119.976 335.809 121.186 336.042 122.296 336.586C123.617 337.235 124.727 337.989 125.582 338.843C125.771 339.159 125.921 339.514 126.004 339.869C126.209 340.812 126.021 341.749 125.499 342.565L119.66 351.583C119.138 352.376 118.338 352.942 117.4 353.13C116.457 353.319 115.513 353.153 114.697 352.626L112.416 351.161C110.762 350.097 110.279 347.878 111.35 346.209L117.189 337.19C117.589 336.586 118.15 336.125 118.799 335.854ZM89.5581 328.765C90.4351 328.388 91.4009 328.366 92.3001 328.721L94.8313 329.725C96.6741 330.457 97.5733 332.526 96.8406 334.367L92.9052 344.367C92.1725 346.209 90.1021 347.107 88.2592 346.397L85.7281 345.393C83.8853 344.661 82.9861 342.587 83.7188 340.745L87.6542 330.751C87.9873 329.83 88.6811 329.137 89.5581 328.765ZM59.1237 359.509V369.487C59.1237 371.284 57.6583 372.77 55.8376 372.77H53.3232C51.5026 372.77 50.0372 371.306 50.0372 369.487V359.509C50.0372 358.277 50.7477 357.185 51.7523 356.641C52.2353 356.453 52.757 356.331 53.301 356.225H53.3232H55.8376C56.0042 356.225 56.1707 356.247 56.3372 356.27C56.4871 356.286 56.6314 356.331 56.7591 356.37C58.119 356.769 59.1237 358.022 59.1237 359.509ZM58.5131 638.74L-26.0739 597.741L27.9121 504.69L95.6694 537.569L58.5131 638.74ZM107.875 541.962L40.0959 509.061L27.9343 503.159L27.8511 503.121L19.4584 499.038L32.8744 476.493L116.412 515.062L107.875 541.962ZM117.711 497.513L109.652 502.782L109.568 502.993L42.5049 478.273L49.2656 466.015L49.3489 465.849L47.6337 417.929L46.9177 363.569C46.8344 361.433 47.7336 359.509 49.2656 358.128C49.1158 358.549 49.0325 359.01 49.0325 359.47V369.442C49.0325 371.827 50.9586 373.752 53.3454 373.752H55.8599C58.2411 373.752 60.1672 371.827 60.1672 369.442V359.47C60.1672 358.921 60.0673 358.422 59.8786 357.939C61.3217 359.176 62.2209 360.845 62.3875 362.67L65.6513 399.187H67.0167L69.2148 373.63C69.3369 370.784 69.9475 368 71.0132 365.344L84.0962 332.609C84.7457 330.978 86.0223 329.703 87.571 328.932C87.1935 329.348 86.8771 329.808 86.6717 330.352L82.7363 340.352C81.8149 342.714 82.9639 345.393 85.3285 346.331L87.8651 347.334C88.4091 347.545 88.9919 347.651 89.5359 347.651C91.3787 347.651 93.1161 346.541 93.8266 344.722L97.762 334.722C97.973 334.201 98.0562 333.635 98.0784 333.091C98.4947 334.428 98.4559 335.854 97.9507 337.212L88.4258 365.743C87.299 369.154 86.7106 372.709 86.7328 376.325L87.2324 397.867L88.5978 397.934C88.6367 397.662 91.9671 371.117 96.2134 363.23C99.7103 356.769 113.026 338.865 113.171 338.677C114.031 337.484 115.263 336.669 116.623 336.208C116.518 336.336 116.396 336.458 116.312 336.608L110.468 345.621C109.091 347.756 109.696 350.618 111.833 351.999L114.114 353.463C114.864 353.946 115.724 354.195 116.601 354.195C116.94 354.195 117.251 354.157 117.589 354.09C118.782 353.84 119.826 353.13 120.498 352.082L126.337 343.069C126.775 342.382 127.009 341.605 127.047 340.812C127.153 341.039 127.258 341.272 127.319 341.5C127.719 342.82 127.53 344.179 126.737 345.56L116.668 363.108C111.472 372.143 108.919 382.432 109.258 392.826L109.924 413.053L111.078 406.697C111.411 404.856 115.408 382.204 115.408 382.204C116.079 378.771 117.334 375.488 119.138 372.454L133.603 348.255C134.313 347.063 135.357 346.142 136.595 345.537C136.55 345.621 136.489 345.682 136.445 345.765L131.405 355.266C130.211 357.501 131.066 360.302 133.309 361.494L135.712 362.77C136.384 363.125 137.116 363.314 137.871 363.314C138.332 363.314 138.793 363.253 139.231 363.108C140.402 362.753 141.368 361.955 141.951 360.868L146.997 351.372C147.141 351.078 147.269 350.79 147.352 350.496C147.563 351.688 147.48 352.942 146.974 354.134L136.989 377.851C135.923 380.402 135.423 383.059 135.485 385.782L134.813 433.342L153.946 405.166C156.189 401.844 158.426 399.981 161.023 399.415C160.413 399.875 159.891 400.441 159.513 401.151L155.35 408.999C153.968 411.589 154.973 414.811 157.565 416.193L160.396 417.679C161.168 418.095 162.028 418.306 162.883 418.306C163.41 418.306 163.932 418.222 164.454 418.073C165.814 417.657 166.924 416.736 167.595 415.483L171.758 407.634C172.158 406.886 172.347 406.07 172.369 405.233C173.118 407.135 173.14 409.187 172.452 411.107L153.946 461.662C153.047 464.13 151.709 466.431 149.972 468.484L146.475 472.499C138.06 482.1 128.391 490.508 117.711 497.513ZM130.672 489.693C136.717 484.734 142.351 479.293 147.502 473.398L151.015 469.382C152.858 467.208 154.263 464.779 155.223 462.144L173.707 411.633C174.001 410.857 174.167 410.064 174.251 409.248H277.743L279.603 413.514C280.585 415.771 281.068 418.156 280.985 420.624L281.59 461.933L274.663 452.127V429.138C274.663 427.069 272.97 425.372 270.894 425.372H182.144C180.068 425.372 178.375 427.069 178.375 429.138V464.906C178.375 466.975 180.068 468.672 182.144 468.672H252.998L260.997 489.693H130.672ZM247.325 438.278C247.764 436.814 248.791 435.599 250.217 434.889C251.094 434.451 252.038 434.224 252.976 434.224C255.091 434.224 257.145 435.311 258.188 437.235L260.869 442.088C261.58 443.381 261.746 444.889 261.308 446.309C260.847 447.773 259.842 448.988 258.421 449.698C255.552 451.162 251.971 450.12 250.445 447.358L247.764 442.504C247.053 441.184 246.887 439.681 247.325 438.278ZM250.589 433.031C247.786 433.991 245.61 435.871 244.439 438.384C243.39 440.641 243.285 443.131 244.167 445.455L252.476 467.308H182.144C180.823 467.308 179.735 466.243 179.735 464.906V429.138C179.735 427.823 180.8 426.731 182.144 426.731H270.894C272.215 426.731 273.303 427.801 273.303 429.138V450.181L265.054 438.489C260.952 432.693 256.517 431.001 250.589 433.031ZM300.157 527.968C289.483 521.229 279.814 513.137 271.399 503.914L267.902 500.065C266.164 498.101 264.849 495.883 263.928 493.52L245.444 444.973C244.689 443.004 244.772 440.874 245.671 438.971C245.904 438.467 246.193 438.006 246.532 437.568C246.465 437.712 246.404 437.84 246.343 437.984C245.821 439.681 246.01 441.456 246.865 443.004L249.546 447.857C250.778 450.12 253.187 451.395 255.679 451.395C256.767 451.395 257.877 451.14 258.904 450.619C260.553 449.781 261.768 448.361 262.29 446.625C262.817 444.928 262.629 443.153 261.768 441.606L259.087 436.753C258.233 435.183 256.806 434.118 255.196 433.591C258.505 433.614 261.202 435.433 263.928 439.304L283.055 466.37L282.389 420.646C282.472 418.012 281.951 415.438 280.879 412.97L270.894 390.152C270.244 388.666 270.228 387.035 270.81 385.549L270.833 385.527C270.749 386.614 270.96 387.706 271.504 388.688L275.273 395.505C276.339 397.451 278.409 398.561 280.546 398.561C281.49 398.561 282.428 398.35 283.327 397.89C284.754 397.157 285.797 395.943 286.258 394.44C286.702 392.975 286.552 391.45 285.797 390.108L282.034 383.292C281.718 382.704 281.279 382.227 280.796 381.783C282.2 382.349 283.433 383.292 284.232 384.567L298.692 407.845C300.518 410.774 301.772 413.913 302.422 417.196C302.422 417.196 306.418 438.988 306.751 440.768L307.906 446.875L308.572 427.424C308.91 417.407 306.357 407.512 301.162 398.81L291.098 381.933C290.321 380.635 290.11 379.337 290.488 378.122C290.654 377.562 290.971 376.996 291.387 376.453C291.098 377.917 291.387 379.42 292.225 380.674L296.582 387.163C297.709 388.855 299.635 389.775 301.606 389.775C302.716 389.775 303.82 389.481 304.825 388.855C306.191 388.017 307.106 386.703 307.445 385.194C307.756 383.708 307.467 382.182 306.607 380.884L302.255 374.401C301.811 373.752 301.25 373.208 300.618 372.792C302.233 373.169 303.676 374.046 304.681 375.366C304.808 375.532 318.141 392.743 321.616 398.954C325.862 406.509 329.193 432.044 329.215 432.299L330.575 432.233L331.074 411.506C331.096 408.034 330.514 404.623 329.381 401.323L319.856 373.857C319.207 372.166 319.357 370.363 320.273 368.777C320.445 368.483 320.65 368.189 320.861 367.939C320.778 368.083 320.672 368.233 320.611 368.377C320.001 369.781 319.984 371.306 320.567 372.709L323.52 379.903C324.441 382.16 326.7 383.541 329.087 383.541C329.82 383.541 330.552 383.419 331.263 383.142C332.773 382.582 333.966 381.45 334.593 380.008C335.198 378.605 335.221 377.08 334.632 375.654L331.685 368.461C331.096 367.041 329.97 365.97 328.626 365.366C330.93 365.87 332.895 367.329 333.777 369.442L346.86 400.946C347.926 403.497 348.515 406.17 348.659 408.932L350.857 433.492H352.217L355.486 398.394C355.653 396.636 356.53 395.022 357.995 393.852C358.017 393.852 358.017 393.835 358.04 393.835C357.829 394.334 357.701 394.878 357.701 395.466V404.773C357.701 407.158 359.627 409.082 362.014 409.082H364.528C366.915 409.082 368.841 407.158 368.841 404.773V395.466C368.841 394.961 368.736 394.462 368.564 394.018C370.096 395.338 371.034 397.202 370.95 399.271L370.24 451.501L368.525 497.596L374.053 507.242L308.283 533.282V533.26L308.2 533.049L300.157 527.968ZM301.456 544.907L384.999 507.824L398.393 529.455L390.522 533.132L373.359 541.146L310.02 570.697L301.456 544.907ZM389.962 534.89L443.925 624.325L359.355 663.732L322.221 566.515L336.331 559.926L389.962 534.89ZM562.483 330.773L543.621 312.764C554.423 303.452 561.273 289.713 561.273 274.383C561.273 246.435 538.515 223.701 510.55 223.701C496.796 223.701 484.323 229.203 475.198 238.11H475.176C474.882 238.282 467.577 242.63 451.208 272.12C448.044 277.811 446.412 283.856 446.207 289.924L438.291 311.927C434.439 322.653 438.019 334.345 447.5 342.043C459.811 352.021 478.712 352.731 491.961 343.696L506.848 333.552C506.848 333.552 508.102 332.443 509.129 332.088L544.271 354.112C546.702 355.621 549.422 356.37 552.142 356.37C556.393 356.37 560.601 354.572 563.509 351.184C568.638 345.183 568.2 336.231 562.483 330.773ZM510.573 225.082C537.782 225.082 559.907 247.189 559.907 274.383C559.907 301.571 537.782 323.679 510.573 323.679C483.357 323.679 461.232 301.571 461.232 274.383C461.232 247.212 483.38 225.082 510.573 225.082ZM459.29 319.248C446.645 305.737 444.025 287.933 452.423 272.791C457.508 263.629 461.693 256.934 465.085 252.043C461.76 258.776 459.873 266.369 459.873 274.383C459.873 302.326 482.625 325.06 510.595 325.06C515.574 325.06 520.37 324.328 524.91 322.992L516.828 327.883C497.867 338.76 474.21 335.205 459.29 319.248ZM531.565 320.562L551.786 343.885L532.947 332.82L522.379 326.109L531.565 320.562ZM562.483 350.285C558.17 355.349 550.66 356.475 545.026 352.964L513.292 333.069L551.786 345.704L551.348 345.244L551.476 345.327C552.036 345.665 552.708 345.537 553.13 345.033C553.546 344.534 553.546 343.846 553.107 343.363L532.803 319.958C535.817 318.471 538.665 316.713 541.301 314.689L542.139 314.184L542.073 314.079C542.245 313.957 542.411 313.829 542.578 313.685L561.545 331.794C566.712 336.713 567.129 344.85 562.483 350.285ZM511.805 311.716C533.469 311.716 551.076 294.106 551.076 272.475C551.076 250.85 533.452 233.24 511.805 233.24C490.163 233.24 472.539 250.85 472.539 272.475C472.539 294.106 490.14 311.716 511.805 311.716ZM511.805 234.599C532.698 234.599 549.716 251.582 549.716 272.475C549.716 293.352 532.72 310.357 511.805 310.357C490.918 310.357 473.899 293.374 473.899 272.475C473.899 251.582 490.918 234.599 511.805 234.599Z" fill="#F7D6BF"/>
</g>
<path fill-rule="evenodd" clip-rule="evenodd" d="M452.385 110.626C452.385 110.626 462.027 117.21 469.392 126.872C476.764 136.539 480.588 150.133 484.945 160.399C491.728 176.379 491.9 187.76 497.89 201.975C502.275 212.385 507.625 221.082 514.658 252.78C519.909 276.457 504.356 308.404 493.399 327.356C492.833 328.338 478.246 348.876 477.902 349.253C471.918 355.798 466.356 361.461 461.427 365.249C452.218 372.315 445.041 370.551 435.505 367.562C427.657 365.104 419.653 353.718 415.878 344.106C413.536 338.138 411.987 334.622 420.246 333.241C423.521 332.692 426.818 337.467 429.788 340.273C432.752 343.08 437.864 349.841 444.314 348.998C455.915 347.473 459.112 337.073 465.185 329.153C475.598 315.564 493.943 273.207 491.384 255.741C489.208 240.922 480.344 225.663 477.957 217.433C476.397 212.047 471.979 202.202 469.109 194.92C465.99 186.989 467.438 186.39 462.221 179.595C460.134 176.878 457.73 174.182 455.26 171.47C455.294 173.467 453.873 174.071 454.933 178.442C454.933 178.442 462.948 218.891 463.742 223.628C464.53 228.365 460.583 251.26 459.523 263.889C458.474 276.524 458.474 285.204 458.474 285.204C458.474 285.204 457.947 293.629 456.365 294.682C454.783 295.731 449.782 300.467 447.412 303.889C445.041 307.311 442.932 309.68 437.931 309.94C432.924 310.207 425.814 308.626 423.971 305.731C422.128 302.836 418.703 299.413 419.231 295.47C419.758 291.521 425.814 288.099 427.923 286.524C430.032 284.943 431.348 253.362 431.081 249.679C430.821 245.996 423.183 222.84 416.6 217.838C410.017 212.84 394.175 197.122 391.316 194.421C388.463 191.714 389.795 192.807 388.913 191.67C388.724 195.458 388.391 198.015 386.965 200.927C385.538 203.839 380.97 207.405 380.248 210.821C379.532 214.244 377.856 218.137 376.024 220.411C374.198 222.691 372.15 226.201 371.417 227.083C370.679 227.965 370.601 230.816 370.601 230.816C370.601 230.816 372.771 230.422 373.121 233.944C373.465 237.466 373.765 247.278 369.469 250.75C365.167 254.227 363.546 254.377 357.252 256.723C350.952 259.069 349.286 258.176 347.194 255.719C345.101 253.262 345.046 249.69 344.918 244.932C344.796 240.167 342.392 233.584 342.259 229.574C342.12 225.564 344.208 221.448 345.634 217C347.066 212.557 352.295 203.528 350.175 200.927C348.054 198.325 344.019 195.924 343.031 192.968C342.043 190.011 337.175 191.198 328.538 186.501C319.901 181.803 310.948 174.87 304.265 169.124C297.587 163.372 297.021 161.631 294.512 158.63H191.164C191.164 158.63 176.943 165.208 173.518 170.999C170.099 176.789 165.62 187.577 158.509 197.31C151.399 207.05 143.761 217.05 140.075 226.257C138.71 229.673 133.07 239.191 135.163 242.868C139.204 249.973 146.819 259.147 146.953 261.26C147.086 263.379 146.986 267.538 146.986 267.538C146.986 267.538 152.12 275.819 152.226 281.732C152.337 287.644 150.533 295.442 146.42 298.776C142.312 302.103 136.462 302.797 134.147 299.28C131.833 295.764 130.195 288.964 128.78 282.02C127.364 275.076 120.476 267.006 117.595 259.762C114.72 252.519 111.972 248.343 111.645 242.574C111.101 233.084 109.252 235.963 110.962 227.838C112.511 220.483 113.876 212.458 114.792 210.472C116.374 207.05 116.113 197.837 117.956 195.469C119.799 193.101 125.594 186.262 125.594 180.732C125.594 175.208 127.436 165.474 123.484 162.052C119.532 158.63 119.532 158.63 119.532 158.63H36.3107C36.3107 158.63 36.2663 158.58 36.183 158.497C36.183 158.497 34.3402 162.441 31.1818 164.548C28.0179 166.65 26.1751 164.282 24.8596 171.387C23.5441 178.497 23.4775 191.587 23.4775 197.904C23.4775 215.558 2.3682 216.207 0.764053 206.057C-0.279477 199.479 2.90107 197.322 2.86221 195.924C2.79006 193.278 2.7512 189.584 2.75675 186.379C2.76785 177.793 3.1453 168.858 4.3165 165.336C6.15933 159.812 6.7699 153.267 9.85053 150.599C12.9256 147.937 16.2227 146.129 20.3913 143.783C19.5642 143.505 19.8196 143.943 18.4042 142.84C16.9832 141.742 12.6092 134.947 12.6092 134.947C12.6092 134.947 7.73572 131.525 4.83826 127.315C1.9408 123.106 0.891719 115.208 0.891719 115.208C0.891719 115.208 13.2698 113.366 17.4827 113.366C21.6957 113.366 32.625 113.893 32.625 113.893C32.625 113.893 37.3653 109.423 39.7355 106.261C42.1056 103.106 48.4278 94.42 51.5862 92.0517C54.7445 89.6834 58.1693 88.1082 59.4848 83.3716C60.8059 78.635 65.0189 72.3177 65.0189 66.0004C65.0189 59.6887 75.815 53.6321 75.815 53.6321C75.815 53.6321 76.6031 65.2128 79.5006 68.108C82.3981 71.0032 87.6657 77.8419 87.9266 79.9495C88.193 82.0516 89.7749 84.1592 89.7749 84.1592C89.7749 84.1592 96.6189 83.1054 98.9891 86.2668C101.359 89.4227 108.731 90.2103 110.579 91.0034C112.422 91.791 115.319 91.5248 119.793 89.1565C124.272 86.7882 129.013 80.7371 135.335 79.4226C141.652 78.1081 144.549 76.7881 150.344 73.8984C156.139 71.0032 165.159 62.3177 169.899 61.7907C174.639 61.2638 201.438 60.3431 215.659 60.3431C229.88 60.3431 235.148 50.6037 252.527 51.6631C269.912 52.7114 265.171 53.2383 285.181 50.0824C305.197 46.921 332.063 45.3458 345.229 49.5555C358.395 53.7652 373.41 56.921 386.837 61.1363C400.27 65.346 432.008 92.0129 437.931 97.3152C443.854 102.623 447.867 106.372 452.385 110.626Z" fill="#4C6770"/>
<path fill-rule="evenodd" clip-rule="evenodd" d="M74.0774 58.4019C74.0774 58.4019 71.7739 61.3969 76.2533 67.1873C80.7271 72.9721 83.6246 75.6067 83.3637 79.5557C83.0973 83.4991 82.1481 85.7898 82.1481 85.7898C80.0666 84.3644 77.0304 84.8303 73.3725 86.5607C72.0514 87.1819 71.8849 86.5108 72.1402 85.1131C72.5898 82.6228 74.366 77.803 73.3558 73.7653C72.9728 72.24 72.5954 70.6371 72.2346 69.0897C71.1078 64.2089 72.7952 58.6293 74.0774 58.4019ZM109.685 105.291C109.685 105.291 107.054 117.659 108.897 121.608C110.74 125.552 112.583 130.554 112.583 136.079C112.583 141.603 112.893 147.31 110.001 149.945C107.104 152.573 103.368 154.764 103.368 154.764C103.368 154.764 105.999 153.383 109.097 151.536C112.188 149.695 114.231 145.358 113.965 142.856C113.704 140.355 114.758 140.882 113.571 133.383C112.388 125.884 110.279 124.037 109.752 119.961C109.224 115.884 108.897 115.884 109.224 112.068C109.557 108.253 109.685 105.291 109.685 105.291ZM34.7674 140.616C41.3505 140.488 47.212 143.117 54.1893 148.38C56.6704 150.25 60.3283 153.738 64.4247 154.953C72.0736 157.216 79.6059 157.46 79.6059 157.46C62.0879 156.173 63.8142 155.618 50.1095 147.26C43.5264 143.25 40.8565 140.982 34.8007 141.242C28.7449 141.503 29.9438 141.259 26.9187 141.919C23.888 142.573 20.9406 144.498 20.9406 144.498C25.4367 141.032 29.0391 140.732 34.7674 140.616ZM17.5158 207.965C17.5158 207.965 17.0773 208.78 14.0855 206.994C11.0937 205.203 11.9651 199.363 11.9651 199.363C11.9651 199.363 11.2269 199.651 11.0437 201.686C10.8606 203.722 11.1547 205.996 12.0817 207.105C13.0087 208.215 15.612 208.952 16.3668 208.802C17.1217 208.658 17.5158 207.965 17.5158 207.965ZM7.72997 201.742C7.72997 201.742 6.8141 204.066 7.41913 206.251C8.02416 208.431 8.49596 209.44 10.0779 210.294C11.6599 211.154 14.0633 210.905 14.0633 210.905C14.0633 210.905 12.0429 211.642 10.583 211.603C9.12874 211.559 7.55235 210.5 6.93622 208.736C6.31454 206.967 6.32564 204.449 6.67534 203.106C7.02503 201.764 7.72997 201.742 7.72997 201.742ZM139.359 290.595C139.359 290.595 141.596 292.436 141.33 294.937C141.069 297.439 140.236 299.724 140.236 299.724C140.236 299.724 143.7 297.833 143.966 294.937C144.227 292.042 139.359 290.595 139.359 290.595ZM356.674 222.186C356.674 222.186 356.019 226.079 358.029 228.769C360.032 231.459 361.426 233.218 364.312 234.205C367.204 235.192 370.468 231.692 370.468 231.692C370.468 231.692 369.535 231.642 367.831 232.097C366.127 232.558 364.04 230.927 364.04 230.927L364.717 228.248C364.717 228.248 364.795 228.531 361.881 227C358.967 225.469 356.674 222.186 356.674 222.186ZM353.571 244.111C353.571 244.111 352.661 245.27 356.119 246.102C359.577 246.939 363.046 245.092 363.046 245.092L365.777 245.514C365.777 245.514 365.616 247.627 363.857 249.014C362.097 250.406 359.649 249.907 359.649 249.907L358.467 247.117C358.467 247.117 357.873 247.4 355.708 246.629C353.549 245.852 353.338 245.741 353.338 245.741C353.338 245.741 352.656 245.469 352.461 244.759C352.273 244.05 353.571 244.111 353.571 244.111ZM432.042 294.494C432.042 294.494 431.053 294.627 429.938 295.742C428.817 296.862 427.04 298.504 426.513 301.005C425.986 303.507 426.113 306.402 426.113 306.402C426.113 306.402 424.931 301.732 425.192 299.951C425.675 296.701 429.222 295.004 432.042 294.494ZM438.297 298.393C438.297 298.393 435.86 299.047 434.872 300.495C433.884 301.942 433.49 304.577 433.951 306.086C434.412 307.6 435.661 308.914 435.661 308.914C435.661 308.914 434.606 306.945 434.678 305.165C434.745 303.39 435.133 301.349 436.06 300.628C436.976 299.901 438.297 298.393 438.297 298.393ZM454.622 166.079C454.622 166.079 454.888 159.235 451.202 142.13C447.511 125.025 439.085 109.5 433.557 103.449C428.023 97.3928 425.653 96.3445 425.653 96.3445C425.653 96.3445 432.236 100.027 438.558 113.449C444.88 126.866 446.79 131.935 449.421 140.089C452.057 148.247 454.622 166.079 454.622 166.079ZM307.201 157.316C303.099 157.316 294.712 157.249 294.712 157.249C287.957 157.232 270.183 157.659 250.939 157.271C221.881 156.683 197.153 155.214 191.641 157.915C192.796 155.907 194.483 153.433 197.586 152.79C200.683 152.141 200.483 148.053 214.177 151.209C227.87 154.365 239.721 156.733 250.517 156.206C261.313 155.685 307.14 152.524 338.745 146.212C370.346 139.894 376.668 158.63 376.668 158.63L387.991 189.102C387.991 189.102 378.25 163.422 372.455 158.63C366.66 153.838 349.197 154.77 346.383 155.419C343.563 156.068 329.148 154.443 307.201 157.316ZM187.262 82.7282C187.262 82.7282 192.557 96.1559 199.906 105.734C207.255 115.313 210.796 117.509 209.664 124.259C208.532 131.015 199.601 139.512 199.601 139.512C199.601 139.512 207.061 134.548 211.74 127.31C216.419 120.072 215.509 117.038 207.25 110.122C198.985 103.205 187.262 82.7282 187.262 82.7282ZM90.5241 105.751C90.5241 105.751 87.3991 111.242 86.3444 114.531C85.2898 117.826 85.6506 120.748 85.917 121.802C86.1779 122.856 89.0754 125.485 89.0754 125.485C89.0754 125.485 86.3944 120.882 87.0993 118.253C87.8098 115.618 89.4695 112.329 90.13 110.094C90.7905 107.859 90.5241 105.751 90.5241 105.751ZM75.7093 138.314C75.7093 138.314 71.8904 136.079 68.0105 135.879C64.125 135.685 63.2036 135.879 59.3181 138.12C55.4326 140.355 51.2862 140.555 51.2862 140.555C51.2862 140.555 52.8182 140.815 56.8314 140.621C60.8501 140.421 60.2062 138.186 65.2129 137.659C70.2141 137.132 75.7093 138.314 75.7093 138.314ZM96.8019 134.232C96.8019 134.232 93.0052 133.538 91.8507 135.186C90.6962 136.838 86.5775 139.933 86.5775 141.253C86.5775 142.573 87.0716 144.553 87.0716 144.553C87.0716 144.553 87.5656 142.989 88.3094 143.317C89.0532 143.644 92.9109 144.287 93.8045 144.542C94.6927 144.792 96.0526 144.32 96.4855 144.404C96.9074 145.602 97.7955 147.188 97.9842 147.804C98.3506 148.957 96.9018 151.22 96.5466 152.28C96.3856 152.779 95.7639 153.827 95.0812 154.26C94.404 154.692 93.2051 154.986 92.5334 155.147C91.8618 155.313 88.0651 155.419 87.2936 155.446C86.5165 155.48 84.4627 155.435 84.4627 155.435C84.4627 155.435 85.4952 155.851 87.3546 155.807C89.2086 155.768 91.9784 155.646 92.5556 155.58C93.1329 155.519 94.4762 155.419 95.1756 155.025C95.875 154.631 96.6798 153.622 97.1794 152.673C97.6734 151.725 98.1452 149.828 98.7058 149.456C99.2609 149.085 100.177 149.384 100.976 149.334C101.77 149.279 103.307 148.497 103.552 148.22C103.801 147.942 104.812 146.24 104.812 146.24C104.812 146.24 103.74 147.521 103.285 148.014C102.83 148.508 101.426 148.796 100.643 148.88C99.8604 148.963 99.1166 148.258 99.1166 148.258L97.3292 143.966C97.4736 143.527 97.6401 143.228 97.5457 141.83C97.4514 140.427 97.0128 137.332 96.5133 136.428C96.2802 135.99 96.0692 135.496 95.9138 135.102C95.7473 134.675 96.8019 134.232 96.8019 134.232ZM6.07031 118.364C6.07031 118.364 6.33119 123.366 8.96777 125.208C11.5988 127.049 18.576 132.18 20.158 133.233C21.7399 134.287 26.4136 139.024 26.4136 139.024C26.4136 139.024 31.2205 136.389 33.0633 135.602C34.9062 134.814 35.4057 130.083 34.8784 127.188C34.3511 124.293 23.4495 120.471 16.8664 120.205C10.2833 119.944 6.07031 118.364 6.07031 118.364Z" fill="white"/>
</g>
<defs>
<clipPath id="clip0_141_1894">
<rect width="997" height="587" fill="white" transform="translate(997 587) rotate(-180)"/>
</clipPath>
</defs>
</svg>
